<svg xmlns="http://www.w3.org/2000/svg" xmlns:xlink="http://www.w3.org/1999/xlink" width="10" height="19" viewBox="0 0 10 19"><defs><path id="rtu6a" d="M219.623 2503.004l-2.398-.004c-2.695 0-4.436 1.787-4.436 4.552v2.099h-2.412a.377.377 0 0 0-.377.377v3.04c0 .21.169.378.377.378h2.412v7.673c0 .208.169.377.377.377h3.146a.377.377 0 0 0 .378-.377v-7.673h2.82a.377.377 0 0 0 .376-.377l.002-3.041a.378.378 0 0 0-.378-.377h-2.82v-1.78c0-.855.203-1.289 1.317-1.289h1.616a.377.377 0 0 0 .377-.377v-2.824a.377.377 0 0 0-.377-.377z"/></defs><g><g transform="translate(-210 -2503)"><use fill="#a0a0a0" xlink:href="#rtu6a"/></g></g></svg>