<svg xmlns="http://www.w3.org/2000/svg" xmlns:xlink="http://www.w3.org/1999/xlink" width="18" height="18" viewBox="0 0 18 18"><defs><path id="cie3a" d="M313.505 2509.102h-3.508a.282.282 0 0 0-.282.282v11.268c0 .156.126.282.282.282h3.508a.282.282 0 0 0 .281-.282v-11.268a.282.282 0 0 0-.281-.282z"/><path id="cie3b" d="M311.752 2503.5a2.316 2.316 0 0 0-2.314 2.312 2.316 2.316 0 0 0 2.314 2.313 2.315 2.315 0 0 0 2.313-2.313 2.315 2.315 0 0 0-2.313-2.312z"/><path id="cie3c" d="M322.427 2508.822c-1.41 0-2.45.605-3.082 1.293v-.731a.282.282 0 0 0-.282-.282h-3.36a.282.282 0 0 0-.281.282v11.268c0 .156.126.282.282.282h3.5a.282.282 0 0 0 .281-.282v-5.575c0-1.879.51-2.61 1.82-2.61 1.427 0 1.54 1.172 1.54 2.706v5.48c0 .155.126.28.282.28h3.501a.282.282 0 0 0 .282-.28v-6.182c0-2.793-.533-5.65-4.483-5.65z"/></defs><g><g transform="translate(-309 -2503)"><g><use fill="#a0a0a0" xlink:href="#cie3a"/></g><g><use fill="#a0a0a0" xlink:href="#cie3b"/></g><g><use fill="#a0a0a0" xlink:href="#cie3c"/></g></g></g></svg>