<svg xmlns="http://www.w3.org/2000/svg" xmlns:xlink="http://www.w3.org/1999/xlink" width="22" height="18" viewBox="0 0 22 18"><defs><path id="g99ia" d="M390.419 2506.421a8.995 8.995 0 0 1-2.486.682 4.29 4.29 0 0 0 1.898-2.385 8.622 8.622 0 0 1-2.736 1.045 4.313 4.313 0 0 0-7.463 2.95c0 .342.029.67.1.984-3.587-.175-6.761-1.894-8.893-4.513a4.344 4.344 0 0 0-.59 2.18 4.32 4.32 0 0 0 1.916 3.586 4.26 4.26 0 0 1-1.95-.531v.047a4.334 4.334 0 0 0 3.457 4.24 4.306 4.306 0 0 1-1.131.141c-.276 0-.555-.015-.817-.073.56 1.708 2.145 2.964 4.031 3.005a8.669 8.669 0 0 1-5.349 1.84 8.08 8.08 0 0 1-1.032-.059 12.146 12.146 0 0 0 6.618 1.936c7.94 0 12.28-6.576 12.28-12.277 0-.19-.007-.375-.016-.558a8.607 8.607 0 0 0 2.163-2.24z"/></defs><g><g transform="translate(-369 -2504)"><g><g><use fill="#a0a0a0" xlink:href="#g99ia"/></g></g></g></g></svg>