<svg xmlns="http://www.w3.org/2000/svg" xmlns:xlink="http://www.w3.org/1999/xlink" width="30" height="29" viewBox="0 0 30 29"><defs><path id="rm29a" d="M65.265 212.14a.625.625 0 0 0-.53-.125l-16.25 3.75a.625.625 0 0 0-.485.615v21.25c0 .308.225.57.53.617l16.25 2.5a.625.625 0 0 0 .72-.617v-27.5a.625.625 0 0 0-.235-.49z"/><path id="rm29b" d="M77.375 238.255h-12.5a.625.625 0 0 1 0-1.25H76.75v-21.25H64.875a.625.625 0 0 1 0-1.25h12.5c.345 0 .625.28.625.625v22.5c0 .345-.28.625-.625.625z"/><path id="rm29c" d="M58.625 232.005a.625.625 0 0 1-.6-.453l-1.9-6.647-1.9 6.647a.65.65 0 0 1-1.201 0l-2.5-8.75a.625.625 0 1 1 1.201-.343l1.9 6.646 1.9-6.648a.65.65 0 0 1 1.201 0l1.9 6.648 1.9-6.646a.618.618 0 0 1 .772-.429c.331.095.523.44.428.772l-2.5 8.75a.625.625 0 0 1-.6.453z"/><path id="rm29d" d="M74.875 219.505h-10a.625.625 0 0 1 0-1.25h10a.625.625 0 0 1 0 1.25z"/><path id="rm29e" d="M74.875 223.255h-10a.625.625 0 0 1 0-1.25h10a.625.625 0 0 1 0 1.25z"/><path id="rm29f" d="M74.875 227.005h-10a.625.625 0 0 1 0-1.25h10a.625.625 0 0 1 0 1.25z"/><path id="rm29g" d="M74.875 230.755h-10a.625.625 0 0 1 0-1.25h10a.625.625 0 0 1 0 1.25z"/><path id="rm29h" d="M74.875 234.505h-10a.625.625 0 0 1 0-1.25h10a.625.625 0 0 1 0 1.25z"/></defs><g><g transform="translate(-48 -212)"><g><g><use fill="#1565c0" xlink:href="#rm29a"/></g><g><use fill="#1565c0" xlink:href="#rm29b"/></g></g><g><use fill="#fafafa" xlink:href="#rm29c"/></g><g><g><use fill="#1565c0" xlink:href="#rm29d"/></g><g><use fill="#1565c0" xlink:href="#rm29e"/></g><g><use fill="#1565c0" xlink:href="#rm29f"/></g><g><use fill="#1565c0" xlink:href="#rm29g"/></g><g><use fill="#1565c0" xlink:href="#rm29h"/></g></g></g></g></svg>